<?xml version="1.0" encoding="utf-8"?>
<!-- Generator: Adobe Illustrator 23.0.2, SVG Export Plug-In . SVG Version: 6.00 Build 0)  -->
<svg version="1.1" id="Layer_1" xmlns="http://www.w3.org/2000/svg" xmlns:xlink="http://www.w3.org/1999/xlink" x="0px" y="0px"
	 viewBox="0 0 1589.5 647.4" style="enable-background:new 0 0 1589.5 647.4;" xml:space="preserve">
<style type="text/css">
	.st0{fill:#D9D9D9;filter:url(#Adobe_OpacityMaskFilter);}
	.st1{mask:url(#mask0_340_660_1_);}
	.st2{fill-rule:evenodd;clip-rule:evenodd;fill:url(#SVGID_1_);}
	.st3{fill-rule:evenodd;clip-rule:evenodd;fill:url(#SVGID_2_);}
	.st4{opacity:0.4;}
	.st5{fill:url(#SVGID_3_);fill-opacity:0.23;}
	.st6{fill:url(#SVGID_4_);}
</style>
<defs>
	<filter id="Adobe_OpacityMaskFilter" filterUnits="userSpaceOnUse" x="398.5" y="-322.1" width="1038.8" height="1053.9">
		<feColorMatrix  type="matrix" values="1 0 0 0 0  0 1 0 0 0  0 0 1 0 0  0 0 0 1 0"/>
	</filter>
</defs>
<mask maskUnits="userSpaceOnUse" x="398.5" y="-322.1" width="1038.8" height="1053.9" id="mask0_340_660_1_">
	<rect y="-147.6" class="st0" width="1572" height="795"/>
</mask>
<g class="st1">
	
		<radialGradient id="SVGID_1_" cx="394.0701" cy="572.342" r="1" gradientTransform="matrix(1.458818e-14 238.243 238.243 -1.458818e-14 -135233.375 -93772.7344)" gradientUnits="userSpaceOnUse">
		<stop  offset="0" style="stop-color:#003CBF;stop-opacity:0.29"/>
		<stop  offset="1" style="stop-color:#003CBF;stop-opacity:0"/>
	</radialGradient>
	<path class="st2" d="M862.6-202.5v55.9H809v1h53.6v72.7H809v1h53.6V0.7H809v1h53.6v72.7H809v1h53.6V148H809v1h53.6v72.7H809v1h53.6
		v72.7H809v1h53.6V369H809v1h53.6v55.9h1V370h72.7v55.9h1V370h72.7v55.9h1V370h72.7v55.9h1V370h72.7v55.9h1V370h72.7v55.9h1V370
		h72.7v55.9h1V370h72.7v55.9h1V370h58.1v-1h-58.1v-72.7h58.1v-1h-58.1v-72.7h58.1v-1h-58.1V149h58.1v-1h-58.1V75.4h58.1v-1h-58.1
		V1.7h58.1v-1h-58.1v-72.7h58.1v-1h-58.1v-72.7h58.1v-1h-58.1v-55.9h-1v55.9h-72.7v-55.9h-1v55.9l-72.7,0v-55.9h-1v55.9h-72.7v-55.9
		h-1v55.9h-72.7v-55.9h-1v55.9l-72.7,0v-55.9h-1v55.9h-72.7v-55.9h-1v55.9h-72.7v-55.9H862.6z M1378.2,369v-72.7h-72.7V369H1378.2z
		 M1304.5,369v-72.7h-72.7V369H1304.5z M1230.8,369v-72.7h-72.7V369H1230.8z M1157.2,369v-72.7h-72.7V369H1157.2z M1083.5,369v-72.7
		h-72.7V369H1083.5z M1009.9,369v-72.7h-72.7V369H1009.9z M936.2,369v-72.7h-72.7V369H936.2z M936.2,295.3h-72.7v-72.7h72.7V295.3z
		 M1009.9,295.3h-72.7v-72.7h72.7V295.3z M1083.5,295.3h-72.7v-72.7h72.7V295.3z M1157.2,295.3h-72.7v-72.7h72.7V295.3z
		 M1230.8,295.3h-72.7v-72.7h72.7V295.3z M1304.5,295.3h-72.7v-72.7h72.7V295.3z M1378.2,295.3h-72.7v-72.7h72.7V295.3z
		 M1378.2,221.7V149h-72.7v72.7H1378.2z M1304.5,221.7V149h-72.7v72.7H1304.5z M1230.8,221.7V149h-72.7v72.7H1230.8z M1157.2,221.7
		V149h-72.7v72.7H1157.2z M1083.5,221.7V149h-72.7v72.7H1083.5z M1009.9,221.7V149h-72.7v72.7H1009.9z M936.2,221.7V149h-72.7v72.7
		H936.2z M936.2,148h-72.7V75.4h72.7V148z M1009.9,148h-72.7V75.4h72.7V148z M1083.5,148h-72.7V75.4h72.7V148z M1157.2,148h-72.7
		V75.4h72.7V148z M1230.8,148h-72.7V75.4h72.7V148z M1304.5,148h-72.7V75.4h72.7V148z M1378.2,148h-72.7V75.4h72.7V148z
		 M1378.2,74.4V1.7h-72.7v72.7H1378.2z M1304.5,74.4V1.7h-72.7v72.7H1304.5z M1230.8,74.4V1.7h-72.7v72.7H1230.8z M1157.2,74.4V1.7
		h-72.7v72.7H1157.2z M1083.5,74.4V1.7h-72.7v72.7H1083.5z M1009.9,74.4V1.7h-72.7v72.7H1009.9z M936.2,74.4V1.7h-72.7v72.7H936.2z
		 M936.2,0.7h-72.7v-72.7h72.7V0.7z M1009.9,0.7h-72.7v-72.7h72.7V0.7z M1083.5,0.7h-72.7v-72.7h72.7V0.7z M1157.2,0.7h-72.7v-72.7
		h72.7V0.7z M1230.8,0.7h-72.7v-72.7h72.7V0.7z M1304.5,0.7h-72.7v-72.7h72.7V0.7z M1378.2,0.7h-72.7v-72.7h72.7V0.7z M1378.2-72.9
		v-72.7h-72.7v72.7H1378.2z M1304.5-72.9v-72.7l-72.7,0v72.7H1304.5z M1230.8-72.9v-72.7h-72.7v72.7H1230.8z M1157.2-72.9v-72.7
		l-72.7,0v72.7H1157.2z M1083.5-72.9v-72.7h-72.7v72.7H1083.5z M1009.9-72.9v-72.7h-72.7v72.7H1009.9z M936.2-72.9v-72.7h-72.7v72.7
		H936.2z"/>
	
		<radialGradient id="SVGID_2_" cx="394.0701" cy="572.342" r="1" gradientTransform="matrix(1.458818e-14 238.243 238.243 -1.458818e-14 -135603.375 -93466.7344)" gradientUnits="userSpaceOnUse">
		<stop  offset="0" style="stop-color:#00D4BF;stop-opacity:0.29"/>
		<stop  offset="1" style="stop-color:#00D4BF;stop-opacity:0"/>
	</radialGradient>
	<path class="st3" d="M492.6,103.5v55.9H439v1h53.6v72.7H439v1h53.6v72.7H439v1h53.6v72.7H439v1h53.6V454H439v1h53.6v72.7H439v1
		h53.6v72.7H439v1h53.6V675H439v1h53.6v55.9h1V676h72.7v55.9h1V676h72.6v55.9h1V676h72.7v55.9h1V676h72.7v55.9h1V676h72.7v55.9h1
		V676h72.6v55.9h1V676h72.7v55.9h1V676h58.1v-1h-58.1v-72.7h58.1v-1h-58.1v-72.7h58.1v-1h-58.1V455h58.1v-1h-58.1v-72.7h58.1v-1
		h-58.1v-72.7h58.1v-1h-58.1v-72.7h58.1v-1h-58.1v-72.7h58.1v-1h-58.1v-55.9h-1v55.9h-72.7v-55.9h-1v55.9h-72.6v-55.9h-1v55.9h-72.7
		v-55.9h-1v55.9h-72.7v-55.9h-1v55.9h-72.7v-55.9h-1v55.9h-72.6v-55.9h-1v55.9h-72.7v-55.9H492.6z M1008.2,675v-72.7h-72.7V675
		H1008.2z M934.5,675v-72.7h-72.6V675H934.5z M860.8,675v-72.7h-72.7V675H860.8z M787.2,675v-72.7h-72.7V675H787.2z M713.5,675
		v-72.7h-72.7V675H713.5z M639.9,675v-72.7h-72.6V675H639.9z M566.2,675v-72.7h-72.7V675H566.2z M566.2,601.3h-72.7v-72.7h72.7
		V601.3z M639.9,601.3h-72.6v-72.7h72.6V601.3z M713.5,601.3h-72.7v-72.7h72.7V601.3z M787.2,601.3h-72.7v-72.7h72.7V601.3z
		 M860.8,601.3h-72.7v-72.7h72.7V601.3z M934.5,601.3h-72.6v-72.7h72.6V601.3z M1008.2,601.3h-72.7v-72.7h72.7V601.3z M1008.2,527.7
		V455h-72.7v72.7H1008.2z M934.5,527.7V455h-72.6v72.7H934.5z M860.8,527.7V455h-72.7v72.7H860.8z M787.2,527.7V455h-72.7v72.7
		H787.2z M713.5,527.7V455h-72.7v72.7H713.5z M639.9,527.7V455h-72.6v72.7H639.9z M566.2,527.7V455h-72.7v72.7H566.2z M566.2,454
		h-72.7v-72.7h72.7V454z M639.9,454h-72.6v-72.7h72.6V454z M713.5,454h-72.7v-72.7h72.7V454z M787.2,454h-72.7v-72.7h72.7V454z
		 M860.8,454h-72.7v-72.7h72.7V454z M934.5,454h-72.6v-72.7h72.6V454z M1008.2,454h-72.7v-72.7h72.7V454z M1008.2,380.4v-72.7h-72.7
		v72.7H1008.2z M934.5,380.4v-72.7h-72.6v72.7H934.5z M860.8,380.4v-72.7h-72.7v72.7H860.8z M787.2,380.4v-72.7h-72.7v72.7H787.2z
		 M713.5,380.4v-72.7h-72.7v72.7H713.5z M639.9,380.4v-72.7h-72.6v72.7H639.9z M566.2,380.4v-72.7h-72.7v72.7H566.2z M566.2,306.7
		h-72.7v-72.7h72.7V306.7z M639.9,306.7h-72.6v-72.7h72.6V306.7z M713.5,306.7h-72.7v-72.7h72.7V306.7z M787.2,306.7h-72.7v-72.7
		h72.7V306.7z M860.8,306.7h-72.7v-72.7h72.7V306.7z M934.5,306.7h-72.6v-72.7h72.6V306.7z M1008.2,306.7h-72.7v-72.7h72.7V306.7z
		 M1008.2,233.1v-72.7h-72.7v72.7H1008.2z M934.5,233.1v-72.7h-72.6v72.7H934.5z M860.8,233.1v-72.7h-72.7v72.7H860.8z M787.2,233.1
		v-72.7h-72.7v72.7H787.2z M713.5,233.1v-72.7h-72.7v72.7H713.5z M639.9,233.1v-72.7h-72.6v72.7H639.9z M566.2,233.1v-72.7h-72.7
		v72.7H566.2z"/>
	<g class="st4">
		
			<radialGradient id="SVGID_3_" cx="1942.5673" cy="431.7909" r="270.2487" gradientTransform="matrix(-0.9226 -0.3858 -0.3858 0.9226 3056.4175 293.8364)" gradientUnits="userSpaceOnUse">
			<stop  offset="0" style="stop-color:#0077E9"/>
			<stop  offset="0.2243" style="stop-color:#003CBF"/>
			<stop  offset="1" style="stop-color:#003CBF;stop-opacity:0"/>
		</radialGradient>
		<path class="st5" d="M996.5,184.6C854.8,125.4,785.3-31,841.2-164.6c55.9-133.6,216-193.9,357.7-134.7S1410-83.7,1354.1,49.9
			C1298.3,183.6,1138.1,243.9,996.5,184.6z"/>
	</g>
	<g class="st4">
		
			<radialGradient id="SVGID_4_" cx="667.7723" cy="-204.9081" r="396.2166" fx="658.5346" fy="-206.8711" gradientTransform="matrix(0.9277 0.4804 -0.4946 0.4415 6.4846 -281.9926)" gradientUnits="userSpaceOnUse">
			<stop  offset="0" style="stop-color:#0077E9"/>
			<stop  offset="0.2243" style="stop-color:#003CBF"/>
			<stop  offset="0.6933" style="stop-color:#003CBF;stop-opacity:0"/>
		</radialGradient>
		<path class="st6" d="M919.8-131.6c161.3,115,212.1,260.1,113.3,324.1c-98.7,64-309.6,22.7-470.9-92.3S350.1-159.9,448.9-223.9
			S758.5-246.6,919.8-131.6z"/>
	</g>
</g>
</svg>
